<svg fill="none" height="144" viewBox="0 0 180 144" width="180" xmlns="http://www.w3.org/2000/svg"><clipPath id="a"><path d="M89.5 30h76.996v76.996H89.5z"/></clipPath><path d="M44.379 23.058H22.965c-5.222 0-9.465 4.219-9.465 9.397v71.979c0 5.186 4.243 9.409 9.465 9.409h21.398c5.222 0 9.637-4.223 9.637-9.409V32.455c0-5.178-4.402-9.396-9.621-9.396z" fill="#fff"/><path d="M39.068 39.701l.023.307c.653.377.983.686 1.642 1.107 1.747 1.09 3.897 3.03 3.626 9.714.49 1.457.705 4.322 1.159 5.24.909 1.79 1.517 2.955 1.782 4.646 0 0 .261 2.63.604 2.82 1.806.406 1.284.582 1.548.888.28.36 1.323.344 1.323 1.307.362.481.52.98.725 1.5V32.453c0-3.963-3.139-6.995-7.118-6.995h-6.918c1.112.392 1.737.67 2.105 1.404.894.076 1.955 2.064.3 4.999.734.484.161 1.209-.364 2.05-.154.269-.321.746-.81.716-.628 1.312-1.387 2.583-1.961 2.664-.174.213-.3.778-.039 1.042.839.375 1.864.89 2.373 1.367zM51.5 71.942c-.938 2.364-3.17 4.035-5.9 4.035-3.572 0-6.45-2.866-6.45-6.401a6.404 6.404 0 014.93-6.23c-.745-1.848-2.314-4.843-2.78-5.826-.442-.975-1.506-7.065-1.735-8.27-.052-.263-2.782 1.573-2.787 1.686-.16.153-2.05 5.052-2.128 5.317-.037.168-.042.822-.042.822s.93.114 1.464 1.723c.528 1.607 2.142 7.475 2.142 7.475s-.437.448-.455.42c2.039 6.773 1.327 9.688 2.24 11.674 1.15 2.8 1.46 2.434 2.445 4.785.707 1.714 1.495 8.457 1.76 8.756 1.1 1.384 1.692 2.467 1.692 3.248 0 .786-.931 3.108-.591 4.46.206.796.314 2.581.687 2.92 0 0 .343.669.174.966-.048.104-.146.258-.102.381.606 2.127 2.565 5.676-.606 7.575h.068c3.462-.532 5.974-3.404 5.974-7.023z" fill="#c8102e"/><path d="M43.457 103.056c-1.162-1.03-.387-1.466-.432-1.872-.768-3.144-3.282-5.046-1.982-6.084-.32-1.038-.975-2.341-.95-2.34-3.921-2.235-7.26-5.866-7.827-6.398-.688-.743-1.86-1.486-2.08-2.09-.942-.858-5.563-7.367-6.64-9.763l-1.875-.263c-.853-3.46-3.701-6.36-3.771-9.829-.026-1.312.598-4.121.832-4.681.228-.568 1.32-1.5 1.32-1.5v-.929c-4.091.116-2.914-.3-3.62-1.878-.496-1.094-.14-1.333.038-2.092.549-2.238 2.373-5.69 3.127-7.258.23-.79 1.019-2.7 1.019-2.7 3.05-6.164 4.187-5.71 7.809-6.058l.179-.254c3.63-.157 3.034-.428 3.546-3.9-.528.227-.686-1.085-.686-1.085-.289-1.975.55-1.6.948-1.64.085-3.246.421-4.09 2.78-4.984H22.968c-3.999 0-6.968 3.038-6.968 7.006v71.976c0 3.971 3.13 7.018 7.129 7.018h21.248c-2.45-1.318-1.003-3.652-.92-8.402z" fill="#1d418a"/><path d="M26.893 107.037V94h2.318c1.422 0 2.301.923 2.301 2.69v2.134c0 1.146-.351 1.731-.844 2.013.493.336.844.901.844 1.855v1.838c0 1.731-.932 2.508-2.301 2.508h-2.46zm1.545-5.475v3.885h.65c.58 0 .738-.301.738-.901v-2.4c0-.619-.193-.888-.755-.888h-.633zm0-5.81v4.431h.633c.598 0 .755-.212.755-.901V96.6c0-.584-.177-.848-.738-.848zm7.047 8.724h-1.53l-.212 2.561H32.04L33.57 94h2.423l1.476 13.037h-1.774zm-.757-8.9h-.088a655.545 655.545 0 01-.386 5.296l-.193 2.172h1.317l-.193-2.172c-.07-.864-.316-3.76-.457-5.296zm-13.002 11.461H20.25V94h2.338l1.88 10.758c-.16-2.472-.371-5.72-.371-8.262v-2.494h1.468v13.036h-2.136L21.55 96.672c.122 2.332.174 4.449.174 6.392v3.973z" fill="#fff"/><path d="M71 77a7 7 0 100-14 7 7 0 000 14z" fill="#1d418a"/><path d="M71 77a7 7 0 100-14 7 7 0 000 14z" fill="#66888a"/><g clip-path="url(#a)"><path d="M164.902 69.37c0-2.729-.345-5.352-.799-7.87h-36.105V76h20.794c-.91 4.791-3.754 9.247-7.846 11.975v9.687h12.486c7.274-6.715 11.47-16.577 11.47-28.293z" fill="#4285f4"/><path d="M127.969 106.964c10.387 0 19.095-3.427 25.46-9.302l-12.485-9.688c-3.427 2.308-7.799 3.707-12.975 3.707-10.002 0-18.5-6.75-21.543-15.842h-12.8v9.932c6.33 12.555 19.305 21.193 34.343 21.193z" fill="#34a853"/><path d="M106.428 75.805c-.769-2.309-1.224-4.757-1.224-7.31s.455-5 1.224-7.309v-9.932h-12.8c-2.622 5.176-4.126 11.016-4.126 17.241s1.504 12.066 4.127 17.242l9.967-7.764z" fill="#fbbc05"/><path d="M127.969 45.343c5.666 0 10.702 1.959 14.724 5.736l11.016-11.016c-6.68-6.225-15.353-10.037-25.74-10.037-15.038 0-28.013 8.638-34.343 21.228l12.8 9.932c3.043-9.093 11.541-15.842 21.543-15.842z" fill="#ea4335"/></g></svg>